<svg width="712" height="201" viewBox="0 0 712 201" fill="none" xmlns="http://www.w3.org/2000/svg">
<path d="M116.597 60.7267C125.248 52.075 134.075 44.6587 146.004 40.9345C160.47 36.4183 179.914 38.2119 191.274 49.3216C200.826 58.6637 205.432 74.648 203.521 87.6779C201.584 100.886 190.188 114.893 179.342 122.209C167.905 129.924 152.417 134.822 138.565 133.579C134.611 133.224 127.542 132.499 124.317 129.719C122.927 128.52 119.795 127.131 119.123 125.788" stroke="white" stroke-width="3" stroke-linecap="round"/>
<path d="M149.443 103.259C145.5 100.192 147.518 94.9433 151.97 93.5734C155.037 91.1198 157.388 91.7171 161.094 92.3101C166.005 93.0958 163.486 101.677 160.112 103.364C157.547 104.646 151.981 105.233 149.443 103.259Z" stroke="white" stroke-width="3" stroke-linecap="round"/>
<path d="M138.705 69.5701H138.073" stroke="white" stroke-width="3" stroke-linecap="round"/>
<path d="M174.078 64.5168H175.342" stroke="white" stroke-width="3" stroke-linecap="round"/>
<path d="M129.862 60.7268C132.756 60.7268 142.839 59.2309 143.758 61.9901" stroke="white" stroke-width="3" stroke-linecap="round"/>
<path d="M167.762 58.8317C167.893 57.7812 173.603 56.2968 174.71 55.9892C176.536 55.4821 178.511 55.6734 180.395 55.6734" stroke="white" stroke-width="3" stroke-linecap="round"/>
<path d="M180.395 123.893C183.732 132.95 185.976 143.138 185.378 152.81C185.299 154.089 184.434 157.299 184.957 158.705C185.457 160.05 192.119 159.264 192.748 159.267C202.136 159.307 210.928 160.777 220.19 161.688C225.713 162.231 223.344 159.289 222.085 155.161C218.459 143.276 214.505 131.416 214.505 118.84" stroke="white" stroke-width="3" stroke-linecap="round"/>
<path d="M167.13 37.9867C163.941 32.9128 161.165 27.3095 156.181 23.7041C155.366 23.1141 150.967 21.881 151.479 21.7038C157.474 19.6286 165.183 20.0242 171.376 19.2824C191.407 16.8828 211.485 14.9732 231.35 11.3866C233.246 11.0442 241.054 8.15049 239.07 12.5446C236.65 17.902 235.35 23.4517 235.35 29.354C235.35 39.3143 242.985 47.9185 248.615 55.6734C253.492 62.3902 253.666 73.0977 251.633 80.9401C249.853 87.8046 244.172 97.6653 237.596 101.013C232.499 103.608 227.526 103.816 222.857 107.47C219.625 109.999 215.35 112.719 214.505 116.945" stroke="white" stroke-width="3" stroke-linecap="round"/>
<path d="M210.499 44.7529C211.122 56.2989 212.325 67.827 213.57 79.3206C213.768 81.1507 213.855 83.0848 214.251 84.8681" stroke="white" stroke-width="3" stroke-linecap="round"/>
<path d="M211.365 43.5985C212.331 44.757 213.276 45.9415 214.339 47.0136C215.697 48.3819 217.287 49.4678 218.74 50.7253C221.444 53.0635 223.817 55.6493 225.186 58.9904C226.964 63.3308 227.567 68.8352 224.16 72.5465C222.859 73.963 221.193 74.9679 219.767 76.2422C218.569 77.3119 217.651 78.6242 216.656 79.8737C216.024 80.6682 215.573 81.6091 215.053 82.4791C214.596 83.2429 214.111 83.9789 213.963 84.8681" stroke="white" stroke-width="3" stroke-linecap="round"/>
<path d="M240.797 39.7749C242.853 38.6186 244.399 36.1725 246.056 34.5157C247.388 33.184 248.794 31.9992 250.065 30.5928C251.89 28.5736 253.338 26.4185 254.29 23.8679C255.01 21.939 255.093 20.4466 255.152 18.4362C255.179 17.504 256.338 17.3158 256.704 18.0482" stroke="white" stroke-width="3" stroke-linecap="round"/>
<path d="M234.201 102.627C234.929 109.172 238.204 114.246 240.215 120.28C241.597 124.427 241.185 128.727 241.185 133.062C241.185 136.997 241.146 140.515 242.909 144.141C244.438 147.284 246.2 149.543 248.772 151.9C251.473 154.376 256.771 155.78 260.368 155.78C266.261 155.78 273.284 156.903 278.797 154.422C292.306 148.343 303.649 135.482 303.649 120.259C303.649 114.705 303.649 109.151 303.649 103.597C303.649 98.1847 302.498 93.0129 301.709 87.6901C301.384 85.4947 300.272 82.98 299.381 80.9436C298.391 78.6795 297.833 76.4091 296.278 74.3911C293.18 70.3723 290.411 65.8791 286.88 62.1914C285.061 60.2914 283.417 57.8722 282.095 55.5958C280.786 53.3412 280.425 51.0016 279.379 48.7199C278.079 45.8842 276.879 41.5912 276.879 38.4386C276.879 32.7285 273.842 25.2718 270.499 21.0227C267.711 17.4792 264.349 16.6105 260.066 16.9059C259.718 16.9299 257.742 17.6603 258.256 17.6603" stroke="white" stroke-width="3" stroke-linecap="round"/>
<path d="M291.5 119C291.5 127.224 282.704 134.5 271 134.5C259.296 134.5 250.5 127.224 250.5 119C250.5 110.776 259.296 103.5 271 103.5C282.704 103.5 291.5 110.776 291.5 119Z" stroke="white" stroke-width="3"/>
<path d="M251.016 121.596C253.084 121.213 255.018 119.974 257.037 119.364C258.642 118.879 260.276 118.754 261.942 118.754C263.888 118.754 264.945 119.107 266.594 120.08C267.475 120.6 268.185 121.219 269.015 121.785C269.53 122.136 270.465 121.116 270.941 120.954C272.016 120.586 273.235 120.272 274.34 119.996C275.901 119.606 277.814 119.512 279.424 119.512C280.902 119.512 282.213 119.606 283.603 120.175C284.614 120.589 285.205 121.102 286.076 121.701C286.592 122.055 287.573 122.709 287.771 123.301" stroke="white" stroke-width="3" stroke-linecap="round"/>
<path d="M254.995 123.68C255.343 123.61 256.488 122.462 256.09 122.585C255.496 122.768 254.18 124.134 254.553 123.637C255.029 123.003 256.716 121.785 255.184 121.785C254.441 121.785 254.023 121.647 253.816 122.396C252.786 126.131 258.691 129.645 261.815 129.237C263.238 129.051 268.578 124.846 266.467 123.301C264.919 122.166 261.968 122.442 263.373 124.964C263.636 125.437 264.976 126.422 265.141 125.3C265.34 123.947 262.735 123.451 261.836 123.343C261.432 123.294 260.506 123.365 261.036 124.016C261.245 124.273 262.535 124.689 261.878 124.901C261.67 124.968 260.031 125.193 260.426 125.679C260.699 126.015 262.112 126.143 262.447 125.869C262.713 125.651 260.709 125.19 260.426 125.237C259.576 125.379 260.848 125.885 261.057 125.911C261.903 126.014 262.673 125.747 261.373 125.322C260.679 125.094 258.089 124.674 257.732 125.721C257.477 126.469 260.15 126.762 260.573 126.585C261.573 126.165 259.292 125.095 258.995 125.048C257.727 124.848 259.466 125.71 259.773 125.785C261.138 126.117 262.178 125.319 260.531 124.48C259.396 123.9 257.85 123.45 256.553 123.49C255.918 123.51 257.085 124.438 257.184 124.501C257.641 124.787 258.182 124.628 258.595 124.858C261.011 126.209 263.138 127.842 265.752 128.9C266.718 129.292 269.737 129.906 268.846 129.363C267.947 128.816 265.691 129.732 264.952 130.268C264.458 130.627 264.273 131.589 265.141 131.553C266.189 131.509 265.036 130.091 264.657 129.911C263.56 129.389 263.066 128.999 261.752 128.984C259.619 128.961 262.035 129.742 262.868 129.742C263.743 129.742 260.649 130.231 260.258 129.447C259.595 128.123 259.134 126.68 258.531 125.322C258.036 124.204 257.366 122.837 257.121 121.638C256.692 119.538 260.116 119.87 261.352 119.975C264.707 120.258 268.326 121.733 270.257 124.585C270.79 125.373 271.271 126.223 271.667 127.09C271.795 127.37 271.776 127.391 271.414 127.237C269.879 126.583 268.376 125.771 266.91 124.985C264.313 123.593 261.838 122.071 259.479 120.312C259.099 120.028 259.108 120.022 259.163 119.638C259.231 119.159 259.45 120.562 259.584 121.027C259.917 122.182 260.104 123.341 260.594 124.437C260.705 124.685 260.61 124.961 260.721 125.195C261.153 126.108 262.387 126.807 263.184 127.3C263.991 127.8 264.853 128.236 265.71 128.648C265.999 128.786 266.762 128.753 266.594 129.026C266.255 129.577 263.435 129.624 262.784 129.7C260.984 129.909 263.116 130.202 263.857 130.458C266.199 131.266 268.409 132.318 271.014 132.521C272.721 132.653 274.212 131.926 275.751 131.289C275.92 131.219 277.361 130.521 277.088 130.521C274.867 130.521 272.632 131.2 270.509 131.774C269.256 132.112 269.405 131.853 270.141 131.068C272.142 128.933 269.32 130.539 268.783 129.416C268.5 128.824 269.096 128.181 268.878 127.574C268.687 127.043 268.038 126.779 267.52 126.721C267.205 126.686 266.153 126.879 266.404 126.879C267.996 126.879 271.332 126.266 272.151 124.627C272.493 123.943 273.28 123.09 273.93 122.743C275.088 122.125 276.412 121.877 273.972 122.48C272.696 122.795 271.444 123.206 270.183 123.574C269.844 123.673 269.473 123.746 270.109 123.659C272.474 123.332 274.619 122.274 277.045 122.174C280.167 122.047 283.064 122.652 285.192 125.174C285.429 125.455 286.786 127 287.108 126.5C287.249 126.281 287.58 125.156 287.55 125.322C287.217 127.152 284.075 129.474 282.382 129.826C280.767 130.163 279.095 130.396 277.456 130.584C276.851 130.654 275.723 130.91 275.119 130.668C275.091 130.657 277.784 128.777 278.098 128.563C278.596 128.223 279.882 127.394 278.445 127.606C278.085 127.659 274.907 128.58 274.772 128.311C274.485 127.736 275.403 126.333 275.53 125.7C275.697 124.863 272.729 127.158 272.498 127.332C272.17 127.58 270.44 128.588 270.562 129.258C270.678 129.899 272.347 128.706 272.498 128.584C273.289 127.952 273.8 127.157 274.34 126.321C275.301 124.836 276.652 123.279 278.508 123.985C279.103 124.211 281.3 124.909 281.129 125.848C280.975 126.696 278.885 127.085 278.508 126.279C278.29 125.811 278.065 124.817 278.14 124.29C278.179 124.014 281.265 126.151 281.466 126.29C281.887 126.579 284.014 127.493 283.645 128.332C283.552 128.543 282.787 129.514 282.476 129.384C281.911 129.149 282.441 126.051 282.455 125.532C282.482 124.575 282.466 123.616 282.466 122.659C282.466 122.032 282.425 121.087 282.855 120.585C283.021 120.392 284.07 121.873 284.266 122.069C284.883 122.686 284.767 123.369 284.634 124.185C284.325 126.082 283.251 128.165 281.361 128.953C279.225 129.843 280.666 123.932 282.276 125.006" stroke="white" stroke-width="3" stroke-linecap="round"/>
<path d="M258.405 66.0853C258.628 68.8059 259.565 71.4489 260.426 74.0213C260.755 75.0027 261.05 75.8925 262.005 76.4211C262.984 76.9631 264.103 75.5602 264.531 74.8633C265.307 73.5991 265.544 72.0698 265.373 70.6111C265.093 68.233 263.354 65.7189 261.447 64.317C260.964 63.9618 260.51 63.8118 259.921 63.8118C259.017 63.8118 259.11 65.2153 258.973 65.8958" stroke="white" stroke-width="3" stroke-linecap="round"/>
<path d="M275.835 65.3274C275.835 66.9897 276.319 68.6276 276.909 70.1691C277.451 71.5872 278.378 74.1756 279.814 75.0528C281.386 76.0138 282.527 71.3676 282.613 70.4006C282.781 68.5174 282.474 66.1785 280.929 64.8748C280.202 64.2616 279.202 63.8477 278.34 63.4645C277.296 63.0007 276.969 63.5043 276.214 64.1907" stroke="white" stroke-width="3" stroke-linecap="round"/>
<path d="M255.374 58.1281C257.661 57.466 260.003 56.9914 262.384 56.9914" stroke="white" stroke-width="3" stroke-linecap="round"/>
<path d="M270.909 56.802C271.797 56.802 272.884 56.6211 273.751 56.8441C274.384 57.0068 274.909 57.4755 275.456 57.7492" stroke="white" stroke-width="3" stroke-linecap="round"/>
<path d="M263.331 67.7903C263.378 69.4501 264.042 71.3903 265.036 72.7162" stroke="white" stroke-width="3" stroke-linecap="round"/>
<path d="M280.571 66.4642C280.571 67.5319 280.862 68.2515 281.308 69.0323C281.53 69.4206 282.087 69.7932 282.087 70.2533" stroke="white" stroke-width="3" stroke-linecap="round"/>
<path d="M255.817 17.2044C257.875 17.1015 259.756 16.4948 261.849 16.4948" stroke="white" stroke-width="3" stroke-linecap="round"/>
<g filter="url(#filter0_d_2_85)">
<path d="M239.705 40.0253C256.599 40.0253 273.422 40.8624 290.325 40.8624C297.727 40.8624 305.129 40.8624 312.531 40.8624C313.575 40.8624 314.002 36.415 313.182 35.9329C311.911 35.1852 311.561 34.5843 310.02 34.5843C307.9 34.5843 305.813 34.1658 303.649 34.1658C298.408 34.1658 294.349 33.6018 290.325 29.9804C286.889 26.8883 283.372 23.795 280.141 20.5632C277.544 17.9664 275.063 14.8768 270.933 14.5177C267.853 14.2498 264.867 14.3327 262.12 15.3315C260.699 15.8483 259.626 17.2609 258.214 17.7497C257.218 18.0945 255.761 18.9452 254.959 19.7029C252.903 21.6444 251.096 24.2974 248.82 26.0275C247.692 26.8846 247.048 28.3788 245.96 29.3758C245.218 30.0559 245.118 30.8484 244.635 31.6545C244.19 32.3951 243.306 32.7991 242.821 33.5612C242.094 34.7033 240.045 35.4619 239.728 36.8863C239.613 37.4031 238.868 38.7889 238.868 37.7001C238.868 35.5478 241.299 32.6356 242.309 30.8174C244.136 27.5287 247.462 24.3593 250.169 21.7956C252.862 19.2436 257.505 14.5888 261.562 14.4944C265.647 14.3994 270.398 13.7347 274.025 15.75" stroke="white" stroke-width="3" stroke-linecap="round" shape-rendering="crispEdges"/>
</g>
<path d="M246.598 33.4507C244.804 34.3191 243.472 34.968 241.71 35.8066C241.225 36.0375 239.74 36.3182 240.25 36.4881C240.665 36.6265 241.067 36.1752 241.477 36.0208C242.335 35.697 243.239 35.3598 244.086 35.0083C244.874 34.6813 245.667 34.1386 246.481 33.879C247.133 33.6709 246.343 35.3796 246.305 35.4561C245.506 37.0815 244.957 37.011 243.288 37.3448C242.759 37.4506 241.644 37.4555 241.165 37.7634C241.016 37.8591 240.863 38.0206 240.756 38.1626C240.715 38.2173 240.892 38.182 240.961 38.182C242.089 38.182 243.214 38.116 244.339 38.0263C250.693 37.5197 256.977 36.7802 263.362 36.7802C264.008 36.7802 264.653 36.7802 265.299 36.7802C267.353 36.7802 261.191 36.7894 259.137 36.7802C255.697 36.7646 252.233 36.7897 248.817 36.3323C248.318 36.2655 246.857 36.1001 247.347 35.9819C248.7 35.6552 250.321 35.9772 251.621 35.5438C251.89 35.4542 251.082 35.3681 250.813 35.2809C249.683 34.9152 250.46 33.8077 250.939 33.1586C251.683 32.1522 252.716 31.3516 253.412 30.3159C253.547 30.1152 253.475 30.07 253.257 30.1406C251.725 30.6365 250.215 31.4064 248.739 32.0293C247.281 32.6449 245.824 33.2697 244.358 33.8693C244.208 33.9308 243.963 33.9282 243.833 34.0153C242.568 34.8583 241.3 35.7346 240.367 36.9943C240.006 37.4815 238.043 37.9803 238.011 38.5325C237.964 39.3327 238.511 38.8622 238.975 39.2335C239.537 39.6835 238.699 40.0434 238.284 39.9247C237.791 39.784 238.968 39.1361 239.413 38.883C243.866 36.3509 248.461 34.0455 253.023 31.7178C255.83 30.2852 258.643 28.7691 261.58 27.6094C261.707 27.5593 262.231 27.2517 261.736 27.5608C260.898 28.0844 260.052 28.5839 259.253 29.1671C258.74 29.542 258.678 29.0586 258.543 29.1379C258.063 29.4202 255.725 32.0295 257.277 31.231C258.433 30.6365 259.615 29.9659 260.685 29.2255C262.722 27.8153 256.354 31.6372 254.25 32.9444C253.449 33.4414 252.654 33.9461 251.855 34.4437C251.659 34.5654 251.143 34.6218 251.27 34.8136C251.483 35.1324 252.036 34.851 252.419 34.8526C254.019 34.859 255.619 34.8526 257.219 34.8526C257.729 34.8526 259.236 34.7855 258.747 34.9304C256.603 35.5659 254.46 36.2827 252.283 36.7996C251.026 37.0982 251.877 36.6955 252.692 36.6049C256.879 36.1396 261.145 36.3771 265.348 36.4199C266.386 36.4305 269.502 36.4297 268.463 36.4297C265.822 36.4297 263.18 36.4297 260.539 36.4297C259.727 36.4297 257.298 36.3401 258.105 36.4297C260.643 36.7117 263.226 36.8177 265.776 36.9262C267.765 37.0108 266.776 37.1272 265.338 37.3448C261.947 37.858 258.498 38.2549 255.067 38.3573C254.918 38.3617 254.471 38.343 254.619 38.3573C262.09 39.0756 238.61 36.7693 256.742 38.552C259.847 38.8573 262.951 39.2162 266.068 39.3698C266.73 39.4023 268.713 39.4705 268.054 39.4087C265.801 39.1975 263.552 39.0203 261.317 38.6396C260.509 38.5019 259.081 38.4747 259.429 37.2961C260.248 34.5153 262.368 32.2538 263.362 29.537C264.441 26.5893 255.398 27.8006 253.85 28.252C253.12 28.4649 254.328 27.0004 252.633 28.0962C251.393 28.8986 250.153 29.7406 249.031 30.7053C248.971 30.7569 247.94 31.7418 248.009 31.4549C248.329 30.1313 249.378 28.7695 250.044 27.6094C250.436 26.9254 252.112 24.5561 250.375 26.5386C248.888 28.2357 247.461 29.9844 245.994 31.6983C245.634 32.1192 244.674 33.0315 245.936 32.2922C248.301 30.9054 250.625 29.4138 252.838 27.7944C253.857 27.0486 254.808 26.0027 255.895 25.3508C256.682 24.8786 254.47 26.5087 253.763 27.0935C251.102 29.293 255.748 26.1194 255.943 25.9934C257.203 25.1798 259.276 23.829 260.539 22.9559C260.961 22.6639 261.38 22.3661 261.785 22.0506C261.939 21.9306 262.229 21.846 262.213 21.6514C262.2 21.4939 261.907 21.7378 261.765 21.8072C261.322 22.024 260.89 22.2652 260.461 22.5081C258.101 23.8417 255.79 25.2609 253.461 26.6456C252.755 27.065 250.616 28.2822 251.309 27.8431C252.884 26.8458 254.475 25.8754 256.041 24.8641C256.46 24.5937 256.936 24.1964 257.423 24.0268C257.517 23.9942 256.872 24.2871 256.713 24.3286C256.039 24.5043 256.715 23.8764 256.06 23.6764C255.106 23.3847 254.779 23.6846 255.213 22.3816C255.623 21.1518 256.333 20.295 257.521 19.7822C258.235 19.4739 258.919 19.0677 259.623 18.7308C261.564 17.802 263.504 16.8853 265.484 16.0438C266.459 15.6298 267.32 15.2261 268.385 15.2261C269.949 15.2261 270.843 15.6998 272.289 16.3748C274.031 17.1878 275.828 17.6623 277.439 18.7697C278.854 19.7426 279.922 21.069 281.294 22.0603C282.258 22.7563 283.403 23.5279 284.234 24.3773C285.106 25.2677 285.677 26.1847 286.707 26.9572C287.367 27.452 287.89 28.1871 288.654 28.5343C289.389 28.8684 290.189 29.2043 290.893 29.5955C294.39 31.5383 298.351 32.683 302.05 34.2295C303.136 34.6836 304.343 35.2345 305.477 35.5438C306.169 35.7325 306.825 36.2385 307.541 36.2544C308.779 36.282 310.021 36.2544 311.26 36.2544" stroke="white" stroke-width="3" stroke-linecap="round"/>
<path d="M298.993 35.904L260.967 28.8945" stroke="white" stroke-width="3" stroke-linecap="round"/>
<path d="M255.009 25.9155C258.718 23.8159 262.435 21.7323 266.146 19.6362C266.829 19.2506 267.022 19.1349 266.136 19.5778C264.764 20.2641 263.744 20.812 262.33 21.554C260.108 22.7196 257.921 23.9061 255.544 24.7278C255.102 24.8808 253.747 25.2424 254.181 25.0685C254.317 25.0143 253.857 25.1695 253.743 25.0782C253.472 24.8614 252.697 25.1411 252.458 25.2535C251.98 25.4789 251.646 25.7403 251.095 25.7403C250.57 25.7403 251.982 25.1751 252.419 24.8835C254.558 23.4578 256.665 22.0019 258.922 20.7655C260.467 19.9199 262.134 19.0052 263.868 18.5945C264.194 18.5174 264.543 18.6188 264.861 18.5166C268.848 17.2351 273.635 18.9564 276.699 21.5346C278.362 22.9336 280.375 24.0836 282.278 25.1269C283.147 25.6037 283.86 26.1845 284.663 26.7527C285.716 27.4981 286.954 27.947 288.09 28.544C290.21 29.6586 292.623 30.1871 294.914 30.8416C297.964 31.7131 300.949 32.6987 304.036 33.4507C304.857 33.6506 306.284 34.0682 306.966 34.5994C307.245 34.8157 307.461 34.7592 307.755 34.8915C308.064 35.0304 308.215 35.4024 308.495 35.5145C309.214 35.802 309.937 36.4035 310.569 36.8775C311.421 37.5172 312.194 38.2825 310.637 38.0068C306.465 37.268 302.304 37.1444 298.107 36.6828C294.889 36.3288 291.718 35.904 288.479 35.904" stroke="white" stroke-width="3" stroke-linecap="round"/>
<path d="M266.224 36.2544C270.835 36.823 275.489 37.2232 280.068 38.0068C282.02 38.3409 283.974 38.3573 285.948 38.3573C290.108 38.3573 294.268 38.3573 298.429 38.3573C300.188 38.3573 302.01 38.2301 303.764 38.3962C304.967 38.5102 306.127 39.0582 307.317 39.0582C307.569 39.0582 308.655 39.4087 308.018 39.4087C304.89 39.4087 301.766 39.3675 298.643 39.175C292.932 38.8231 287.225 38.1683 281.586 37.189C278.42 36.6391 275.295 35.902 272.124 35.3783C269.074 34.8746 265.984 34.1946 262.875 34.3268C261.324 34.3928 265.939 34.8783 267.49 34.9499C269.07 35.0228 270.651 34.9821 272.231 35.0473C272.694 35.0664 273.13 35.0866 273.545 35.3004C274.17 35.6224 272.318 36.0622 272.26 36.0792C270.791 36.5108 269.254 37.0071 267.743 37.2669C266.797 37.4295 268.582 37.4669 268.716 37.4811C270.972 37.7206 273.262 37.9298 275.492 38.3573C277.52 38.7459 273.711 39.7239 273.35 39.7786C272.549 39.9003 271.681 39.9772 270.868 39.9247C270.78 39.919 273.041 39.6011 273.272 39.5742C274.665 39.4127 276.1 39.0582 277.507 39.0582C277.621 39.0582 277.962 39.0582 277.848 39.0582C277.128 39.0582 276.407 39.0582 275.687 39.0582C274.19 39.0582 272.685 39.0927 271.189 39.0193C270.731 38.9968 269.775 39.0342 269.466 38.5423C268.817 37.5097 270.513 35.7553 270.878 34.8428C271.482 33.3312 265.045 34.7762 264.238 34.4826C264.023 34.4044 264.142 33.8935 264.102 33.7232C263.98 33.2073 263.118 33.5271 262.797 33.6259C261.201 34.1169 262.951 32.5823 261.94 32.6913C260.243 32.8744 258.795 33.7941 257.19 34.249C256.73 34.3792 257.115 33.8485 257.19 33.7525C257.866 32.8781 258.713 32.1317 259.487 31.3478C259.891 30.9391 260.285 30.5299 260.655 30.092C260.714 30.0226 260.553 30.2422 260.5 30.3159C260.137 30.8167 258.926 32.224 259.331 31.7567C260.168 30.7909 261.09 29.8131 261.785 28.7387C262.481 27.662 259.637 28.9978 259.312 29.1087C258.133 29.5107 259.967 27.4905 260.149 27.2784C260.217 27.1995 261.492 25.6609 261.045 26.0907C260.575 26.5428 260.075 26.955 259.546 27.3369C259.236 27.56 258.428 28.2779 258.562 27.921C258.709 27.5308 260.276 26.4135 260.422 26.2854C261.554 25.2898 262.684 24.2851 263.741 23.2091C264.146 22.7976 264.223 22.672 263.751 23.0533C262.119 24.3717 260.479 25.6803 258.845 26.9961C257.067 28.4271 255.326 29.89 253.588 31.3673C253.45 31.4838 253.326 31.6198 253.169 31.708C252.815 31.9072 253.71 31.1002 254.006 30.8221C254.291 30.5545 260.933 24.8285 261.103 25.2535C261.347 25.8627 261.078 26.3175 262.057 26.3244C263.97 26.3378 265.659 25.148 267.1 24.0268C267.832 23.4576 267.653 24.2366 267.47 24.8057C267.223 25.5741 265.792 27.5389 266.341 26.9474C267.016 26.2203 268.186 24.9102 268.346 23.91C268.448 23.2769 267.31 24.6736 266.857 25.1269C266.015 25.9683 265.202 26.8337 264.394 27.7068C263.424 28.7544 265.056 26.5723 265.173 26.4023C265.558 25.8373 265.967 25.2549 266.166 24.5915C266.212 24.438 266.224 23.9543 266.224 24.1145C266.224 24.6247 266.35 25.1467 266.993 24.718C267.587 24.3223 268.326 23.4553 268.424 22.7223C268.608 21.3453 265.773 22.6652 265.728 22.6834C263.96 23.3921 262.234 24.3662 260.811 25.6429C260.429 25.9857 259.499 26.8272 259.721 27.4926C260.285 29.1862 263.537 29.2826 264.803 28.544C265.115 28.3621 265.596 27.6307 264.861 27.882C264.51 28.0021 264.627 28.3673 264.822 28.583C265.54 29.3769 266.819 29.5685 267.821 29.5955C268.169 29.6048 270.849 29.632 270.829 28.7193C270.809 27.812 268.218 27.8355 267.84 27.8431C267.235 27.8552 265.099 27.916 264.783 28.7582C264.342 29.936 268.344 30.7884 268.843 30.9C269.561 31.0606 270.878 31.3933 271.676 31.1726C271.942 31.0989 271.154 30.9529 270.878 30.9487C270.278 30.9396 267.509 31.3703 269.291 32.1267C270.197 32.5115 271.297 32.697 272.279 32.5939C273.619 32.4534 272.318 31.8429 271.861 31.7178C269.756 31.1424 267.452 31.0878 265.289 31.231C264.242 31.3003 261.413 31.5237 262.271 32.1267C263.455 32.9575 266.151 32.7994 267.47 32.8276C268.585 32.8514 270.063 32.8942 271.131 32.409C271.975 32.0252 269.246 31.562 268.901 31.562C266.015 31.562 274.602 32.6299 277.488 32.6718C279 32.6938 280.89 32.771 282.385 32.3019C282.86 32.1528 280.039 32.085 279.97 32.0877C279.256 32.1158 277.27 32.1772 277.877 32.555C279.348 33.4709 281.896 33.616 283.533 33.8401C284.813 34.0152 286.421 34.2737 287.729 33.9764C288.015 33.9116 287.155 33.83 286.863 33.8401C285.743 33.8787 284.62 33.9472 283.504 34.0543C283.278 34.0759 282.689 34.1717 282.871 34.3074C283.396 34.6976 284.185 34.859 284.799 34.9986C285.056 35.0569 286.381 35.1106 286.61 35.3393C286.663 35.3923 286.461 35.3588 286.386 35.3588C285.972 35.3588 284.783 35.3023 284.497 35.2906C283.536 35.2515 282.53 35.1534 281.567 35.242C278.88 35.489 286.999 35.274 289.647 34.7552C289.93 34.6998 291.97 34.4241 290.845 33.7622C289.718 33.0996 288.336 32.7848 287.097 32.4187C286.248 32.168 283.72 31.3983 284.595 31.5328C284.746 31.556 286.194 31.7874 286.181 31.6399C286.176 31.5699 286.118 31.5103 286.065 31.4646C285.601 31.068 284.58 30.4582 284.176 30.2185C282.417 29.1753 280.609 28.2186 278.841 27.1908C278.217 26.8281 276.418 25.6648 277.098 25.9058C278.46 26.3879 282.471 28.0228 281.148 27.4439C278.219 26.1625 275.274 24.9266 272.464 23.394C271.986 23.1331 270.926 22.6868 271.598 23.6472C273.573 26.4686 271.392 22.0191 270.547 23.0922C270.272 23.4408 270.825 24.335 271.092 24.572C271.35 24.8016 270.851 23.6771 270.508 23.7153C270.121 23.7583 270.675 28.8272 270.391 24.4552C270.371 24.1465 269.768 22.2078 269.982 23.3064C270.094 23.8812 270.165 25.1722 270.566 25.6234C270.886 25.984 270.392 24.6743 270.293 24.2021C270.169 23.6067 270.41 24.7177 270.41 24.8641C270.41 25.4804 269.743 25.8203 269.339 25.2243C268.657 24.2175 269.829 23.0055 270.556 22.4497C271.427 21.784 270.283 21.5266 269.641 21.2815C269.461 21.2128 267.507 20.6977 268.424 20.6681C271.265 20.5765 274.12 20.6584 276.962 20.6584C277.102 20.6584 277.241 20.6584 277.381 20.6584C277.582 20.6584 276.978 20.6622 276.777 20.6584C275.594 20.6362 274.424 20.559 273.253 20.3858C272.235 20.2354 269.265 19.7796 270.274 19.5778C270.327 19.5671 270.381 19.6028 270.43 19.6265C270.96 19.8822 272.05 20.5046 272.416 20.7168C275.015 22.2275 277.572 23.8202 280.048 25.5261C280.348 25.7324 281.845 27.0034 281.82 26.9864C280.408 26.0106 278.825 25.3221 277.478 24.241C277.392 24.1718 277.309 24.0988 277.225 24.0268C277.088 23.9095 276.931 23.7943 277.264 23.9782C278.806 24.8313 280.292 25.8055 281.801 26.7138C284.228 28.1753 286.723 29.4498 289.199 30.7832C290.221 31.3331 287.051 29.9039 286.006 29.4008C284.271 28.5651 285.788 29.6035 286.396 30.0433C286.938 30.4359 287.311 30.715 286.201 30.715C282.849 30.715 279.41 30.1231 276.115 29.5955C273.798 29.2244 271.492 28.774 269.222 28.1741C267.835 27.8074 269.205 28.0262 269.641 28.1254C271.584 28.5676 273.498 29.1303 275.414 29.6733C276.268 29.9152 277.322 30.3358 278.237 30.423C279.698 30.5621 275.432 29.5216 274.119 28.8653C273.379 28.495 274.175 28.5693 274.538 28.583C275.829 28.6318 277.119 28.7484 278.403 28.8848C278.952 28.9431 280.417 29.48 280.048 29.0697C279.73 28.7165 277.411 28.0615 277.205 27.9794C277.16 27.9613 272.255 25.8309 272.727 25.5358C273.334 25.1565 274.979 25.7609 275.492 25.896C276.783 26.2363 278.064 26.6368 279.347 27.0059C280.803 27.4243 278.768 27.3685 278.413 27.3758C275.769 27.43 273.12 27.3251 270.478 27.2395C269.461 27.2065 268.326 27.0745 267.295 27.1421C267.167 27.1505 267.503 27.2995 267.626 27.3369C268.574 27.6265 272.077 28.5933 272.396 28.6803C278.327 30.2984 284.454 32.3818 290.621 32.886C291.461 32.9547 292.262 32.9014 293.094 32.7887C294.115 32.6501 291.398 32.5458 291.302 32.5355C287.64 32.1414 283.84 32.0065 280.175 32.4284C278.701 32.5981 277.35 33.2082 275.901 33.4312C275.157 33.5456 275.701 33.4825 276.261 33.5577C276.839 33.6354 280.944 33.5921 280.944 34.5021" stroke="white" stroke-width="3" stroke-linecap="round"/>
<path d="M238.802 41.2533C239.717 41.2533 240.059 41.7048 240.839 41.9919C242.081 42.4498 243.793 42.317 245.067 42.3254C247.287 42.3401 249.64 42.4877 251.834 42.111C256.011 41.3937 260.291 41.6822 264.52 41.6822C269.112 41.6822 273.049 44.5853 277.493 45.2201C280.174 45.6031 282.836 45.7562 285.546 45.7562C288.76 45.7562 292.175 46.1007 295.361 45.7086C299.105 45.2478 302.517 44.0387 306.13 43.1355C307.605 42.7668 309.229 42.5399 310.752 42.5399C315.2 42.5399 301.938 41.3045 297.506 40.9317C291.972 40.4662 286.434 40.0429 280.9 39.5856C279.24 39.4485 277.715 39.2591 276.123 38.8113C273.968 38.2052 276.633 43.1238 274.086 42.4446C273.862 42.3848 273.3 41.8657 273.3 41.6107C273.3 41.3565 273.801 41.7108 274.038 41.8013C275.391 42.3166 276.726 42.832 278.124 43.2189C281.813 44.2398 285.834 43.8264 289.632 43.8264C293.936 43.8264 298.269 43.7643 302.533 43.612C305.099 43.5203 307.683 43.612 310.252 43.612C310.802 43.612 311.998 43.8434 312.396 43.4452C312.755 43.0866 312.563 42.077 312.563 41.575C312.563 40.6024 311.829 40.5602 310.943 40.1574C306.188 37.996 301.342 38.2514 296.207 38.2514C292.169 38.2514 288.131 38.2514 284.092 38.2514C282.88 38.2514 282.252 38.2679 281.221 38.6803C280.873 38.8196 278.996 39.3836 279.47 39.9668C280.079 40.7163 281.995 41.0064 282.853 41.1342C285.052 41.4616 287.486 41.4678 289.715 41.4678C294.067 41.4678 298.419 41.4678 302.771 41.4678C304.119 41.4678 305.162 41.2104 306.607 41.4201C308.494 41.6941 310.023 42.583 311.812 42.9806C313.506 43.357 315.136 42.6256 315.136 40.6101C315.136 40.1982 315.338 38.9438 315.017 38.6684C313.745 37.578 313.256 35.8899 311.92 34.8207" stroke="white" stroke-width="3" stroke-linecap="round"/>
<path d="M301.107 83.3584C302.563 82.9841 303.787 82.4355 305.158 81.8768C309.705 80.0245 314.832 79.5156 319.697 79.4692C323.015 79.4376 323.737 80.0713 322.961 76.9227C322.291 74.2061 321.719 71.4597 321.109 68.7277C320.851 67.5751 320.08 66.7499 319.835 65.6487C319.673 64.9164 318.674 64.4489 320.067 65.2552C324.088 67.5832 327.853 71.09 331.711 73.7512C334.769 75.8596 337.502 78.0628 339.536 81.1823C340.309 82.3677 341.585 83.1003 342.152 84.4233C342.63 85.5382 343.49 86.0644 343.981 86.9235C344.484 87.8037 343.337 89.2808 342.777 89.8404C341.942 90.6754 341.006 91.0651 340.277 92.1091C338.962 93.9918 337.734 96.2125 336.017 97.7577C333.04 100.437 331.379 103.747 328.841 106.647C328.038 107.564 327.359 104.746 327.359 104.101C327.359 102.735 327.083 102.394 326.341 101.439C325.3 100.101 325.245 97.1078 324.651 95.4427C323.56 92.3903 316.904 95.1515 315.067 95.6279C312.625 96.2609 310.124 96.3413 307.682 96.7854C306.434 97.0122 303.599 96.7016 302.774 97.5262" stroke="white" stroke-width="3" stroke-linecap="round"/>
<path d="M302.774 127.112C303.193 129.018 303.81 130.705 304.418 132.529C305.599 136.073 312.952 138.498 315.599 139.821C323.713 143.878 334.952 148.262 342.985 141.465C345.018 139.745 346.371 137.653 347.963 135.862C350.237 133.304 351.503 130.567 352.593 127.297C353.374 124.953 354.271 122.732 354.445 120.213C354.78 115.346 356.762 110.556 357.593 105.768C358.351 101.402 359.655 97.8126 361.528 93.799C361.649 93.5403 362.779 90.674 362.779 91.9239C362.779 96.325 363.743 100.196 364.862 104.425C365.82 108.043 366.946 111.452 366.946 115.236C366.946 118.274 364.608 121.636 362.964 124.102C362.265 125.15 360.869 127.139 360.903 127.112C362.8 125.594 367.058 126.278 369.353 126.278C371.7 126.278 374.144 126.089 376.483 126.301C378.987 126.529 381.3 127.739 383.776 127.922C385.465 128.047 387.907 127.983 389.262 129.195C389.806 129.682 391.058 130.684 391.114 129.288C391.226 126.493 389.845 124.35 388.405 122.111C386.932 119.819 386.063 116.733 384.864 114.194C383.995 112.354 383.447 109.942 383.197 107.944C382.862 105.265 381.633 103.02 381.113 100.42C380.698 98.3436 379.446 96.5786 379.446 94.4241C379.446 93.9176 379.03 90.7737 379.03 92.3174C379.03 94.6059 382.187 95.9796 383.197 97.9428C384.65 100.769 386.732 103.304 388.405 105.906C390.555 109.25 392.09 112.876 394.031 116.37C395.823 119.596 397.646 122.718 399.957 125.607C404.074 130.753 407.111 136.672 411.926 141.233C417.365 146.386 423.148 145.186 428.038 141.048C429.731 139.615 430.531 137.398 431.534 135.446C432.693 133.189 434.681 131.424 435.191 128.871C436.013 124.766 436.534 120.225 436.534 116.046C436.534 110.019 432.675 103.495 427.969 99.9337C424.56 97.3542 420.586 95.6428 418.176 91.8776C416.704 89.5775 415.054 87.5369 413.616 85.2104C411.787 82.2529 411.477 78.9527 410.282 75.7652C409.627 74.0173 409.988 72.5242 407.944 72.5242C404.972 72.5242 402.14 72.4444 399.193 72.1075C394.534 71.5751 380.601 69.7121 385.28 70.024C386.698 70.1185 386.947 73.2218 386.947 74.191C386.947 75.9468 387.465 80.0248 384.956 80.0248C382.553 80.0248 381.113 79.2238 381.113 76.6912" stroke="white" stroke-width="3" stroke-linecap="round"/>
<path d="M380.697 76.6912C380.509 73.1255 377.78 69.9561 377.78 66.2969C377.78 64.6224 377.78 62.9479 377.78 61.2734C377.78 57.8139 380.067 55.5952 382.363 53.1709C383.492 51.9792 384.707 50.9659 385.859 49.8142C386.13 49.5429 386.114 48.1548 386.114 48.9808C386.114 49.5441 386.114 50.1074 386.114 50.6707C386.114 53.5645 386.114 56.4582 386.114 59.3519C386.114 59.4707 386.551 58.8882 386.623 58.7732C386.904 58.3235 388.138 57.9392 388.614 57.7083C392.652 55.7467 398.261 55.891 402.596 55.8563C408.722 55.8073 413.94 56.4776 419.774 58.1713C422.683 59.0159 423.232 58.8057 421.116 56.6897C417.344 52.9172 414.602 47.9891 412.782 42.985C412.146 41.2362 411.405 39.3855 411.139 37.5216C410.98 36.4086 411.4 35.0804 411.092 34.0028C410.676 32.5447 407.883 29.773 406.763 28.7709C404.408 26.6631 401.276 26.2707 398.198 26.2707C392.156 26.2707 387.303 26.2686 381.437 23.9094C377.768 22.4338 374.361 20.5914 371.02 18.4923C370.549 18.1963 369.478 17.3813 369.446 17.9367C369.387 18.9265 370.345 19.9242 370.603 20.8536C371.48 24.0108 371.946 27.7316 371.946 30.9933C371.946 36.3873 371.728 40.7999 368.635 45.4388C367.914 46.5211 367.518 47.6937 366.76 48.7956C366.245 49.5446 365.856 50.229 365.487 51.0411C364.557 53.088 362.977 48.5292 362.802 47.8001C362.573 46.8458 361.958 46.0922 361.528 45.2073C361.064 44.2513 361.438 43.174 361.019 42.2905C360.491 41.1746 359.497 39.6703 359.445 38.2624C359.316 34.7861 359.688 31.9315 361.019 28.7709C361.842 26.8163 362.168 23.0611 360.07 21.8954C357.747 20.605 354.285 22.9371 351.852 22.9371C347.141 22.9371 343.164 23.197 339.027 20.6684C338.398 20.284 335.046 18.6778 337.36 19.6035C338.284 19.9733 338.295 21.6094 338.842 22.3121C342.254 26.6991 339.52 32.5991 340.786 37.5216C341.226 39.233 342.827 40.7188 343.796 42.1284C345.492 44.5966 346.602 47.3135 348.217 49.8373C350.335 53.1466 352.169 57.456 352.801 61.2502C352.913 61.9246 351.518 60.5054 351.018 59.6066C350.272 58.2638 348.72 56.8651 347.592 55.8563C346.606 54.9736 345.33 54.6726 344.444 53.5645C343.43 52.2974 342.103 51.015 340.925 49.8373C339.287 48.1995 338.472 45.8575 337.267 43.8647C336.004 41.7752 334.452 39.7026 332.776 37.9383C331.104 36.1776 330.325 33.1518 329.443 30.947C329.035 29.9287 327.873 27.1763 326.942 26.5948C326.414 26.2644 325.141 24.9117 324.859 24.4187C324.542 23.864 322.339 24.1872 321.734 24.1872C317.91 24.1872 313.801 24.6039 309.858 24.6039C304.909 24.6039 300.267 21.687 295.181 21.687C292.085 21.687 294.74 26.8789 292.773 28.3542" stroke="white" stroke-width="3" stroke-linecap="round"/>
<path d="M288.606 45.4388C290.171 47.9244 291.106 50.7308 291.106 53.6571C291.106 55.0815 291.398 55.0953 292.773 55.0229C296.086 54.8485 299.204 54.4391 302.542 55.0461C305.492 55.5822 309.862 57.9731 310.275 61.2734C310.409 62.351 310.164 63.0995 309.21 64.1903C308.737 64.7303 307.83 66.3202 307.358 66.5979C305.927 67.4393 304.928 69.1667 303.839 70.2556C303.218 70.8761 302.822 71.6513 302.774 72.5242C302.769 72.6056 301.73 74.9831 301.709 75.0013C300.629 75.9268 300.69 79.8066 300.69 81.2749" stroke="white" stroke-width="3" stroke-linecap="round"/>
<path d="M412.366 33.3546C417.603 33.7287 418.373 33.8321 423.941 34.0028C428.476 34.1419 433.067 33.5009 437.553 34.188C441.881 34.8509 442.826 36.2825 444.174 40.4848C444.819 42.4963 447.139 55.7267 447.461 57.5231C448.37 62.6017 449.147 67.6952 450.563 72.6632C450.757 73.3424 451.708 78.4968 452.6 78.7516C453.009 78.8684 453.551 78.3481 453.85 78.1034C455.106 77.0762 455.258 76.6912 456.952 76.6912C459.174 76.6912 461.398 76.6604 463.62 76.6912C465.834 76.722 467.706 77.7041 469.847 77.9182C473.124 78.2459 471.53 77.3432 470.541 74.8161C468.36 69.2406 467.407 62.5964 466.351 56.736C465.792 53.634 464.718 50.6404 464.059 47.5686C463.858 46.6285 463.236 45.8555 464.453 45.8555C467.141 45.8555 470.756 44.0698 472.81 42.4988C475.647 40.3294 481.121 37.9346 481.121 33.6092C481.121 31.5288 480.616 37.758 480.704 39.8366C481.027 47.4776 488.611 53.5136 493.529 58.2639C499.414 63.9481 505.702 69.2251 510.845 75.6032C514.887 80.6142 516.256 87.2255 517.605 93.3592C519.139 100.331 519.877 107.478 521.541 114.426C522.209 117.217 522.296 120.088 523.115 122.852C523.503 124.162 521.646 124.251 520.707 124.519C513.554 126.563 506.098 127.492 498.923 129.542C496.771 130.157 493.832 130.864 491.955 132.205C490.989 132.895 490.288 134.011 490.288 132.135C490.288 124.19 491.61 116.239 489.64 108.36C488.664 104.457 487.909 99.0438 485.381 95.8594C483.424 93.3958 481.529 93.3592 478.621 93.3592C475.078 93.3592 471.571 94.0224 467.995 94.2157C463.653 94.4504 459.492 95.026 455.1 95.026C454.282 95.026 451.829 95.026 452.647 95.026C453.512 95.026 453.927 95.2228 454.452 95.952C455.786 97.8044 457.222 99.6557 458.619 101.485C461.617 105.411 463.371 109.869 465.194 114.426C467.638 120.536 466.236 125.807 464.036 131.672C461.253 139.096 457.752 146.309 457.392 154.406C457.287 156.771 457.707 158.791 458.388 161.026C458.895 162.694 457.409 161.865 456.351 161.513C449.417 159.201 442.356 159.116 435.099 159.198C430.587 159.248 426.3 160.869 421.927 161.744C419.372 162.255 417.849 164.212 418.639 160.656C419.23 157.996 420.283 155.735 420.283 152.854C420.283 150.385 420.283 147.916 420.283 145.446" stroke="white" stroke-width="3" stroke-linecap="round"/>
<path d="M408.615 56.6897C409.386 58.8717 411.394 65.0511 408.824 67.1072C407.636 68.0571 406.921 69.1074 405.698 70.024" stroke="white" stroke-width="3" stroke-linecap="round"/>
<path d="M492.372 142.113C496.638 141.503 500.537 139.589 504.688 138.571C508.944 137.527 513.32 136.537 517.466 135.122C519.013 134.594 520.463 133.67 522.096 133.409C522.553 133.335 525.265 133.186 525.268 133.2C525.618 134.776 525.252 136.658 525.384 138.27C525.586 140.747 525.708 143.168 525.708 145.655C525.708 146.104 525.816 152.191 526.749 151.465C527.996 150.496 528.505 149.634 529.273 148.317C530.539 146.146 531.441 143.67 532.56 141.418C535.266 135.976 539.283 131.861 543.093 127.204C544.979 124.899 546.553 122.424 548.302 120.028C548.907 119.198 549.294 118.916 548.186 118.569C539.104 115.731 530.618 111.482 525.059 103.453C522.126 99.2152 518.593 95.35 516.957 90.4423" stroke="white" stroke-width="3" stroke-linecap="round"/>
<path d="M504.039 66.6905C505.915 65.0232 506.017 61.5407 507.859 59.514C510.08 57.071 512.105 55.2731 514.688 53.2635C517.407 51.1491 519.988 48.9226 522.791 46.8741C524.959 45.2899 526.785 43.2426 528.926 41.596C532.187 39.0871 535.371 36.406 537.954 33.1925C539.325 31.4865 543.209 28.707 543.209 26.2707C543.209 24.9877 559.012 24.8252 560.942 24.6039C561.701 24.5169 570.294 22.3962 570.294 23.9789C570.294 25.6973 569.768 27.1912 569.901 28.9792C570.385 35.5087 573.715 43.0073 578.212 47.7538C580.59 50.2641 583.151 52.3458 585.342 55.0229C587.227 57.3272 588.563 59.3339 590.088 61.8753C591.877 64.8576 593.725 66.2116 589.879 68.0332C587.428 69.1941 585.4 71.1695 583.397 73.1724C582.247 74.3225 580.916 75.245 579.693 76.2745C577.746 77.9146 573.211 80.0429 573.211 82.7797C573.211 86.5116 574.343 90.0298 574.971 93.6833C575.92 99.2051 578.235 104.356 581.221 109.055C586.831 117.883 594.243 125.682 602.357 132.274C603.706 133.37 605.292 134.26 606.547 135.446C607.458 136.306 608.765 136.408 609.464 137.437C610.562 139.051 611.548 139.435 611.548 141.511C611.548 145.712 611.877 150.205 612.589 154.336C612.691 154.928 612.979 158.364 612.798 158.364C611.548 158.364 610.297 158.364 609.047 158.364C601.524 158.364 594.495 159.435 587.634 162.716C584.205 164.356 580.379 165.531 577.378 167.531" stroke="white" stroke-width="3" stroke-linecap="round"/>
<path d="M578.7 166.895C575.038 169.005 570.958 170.905 567.652 173.595C566.864 174.235 566.31 175.052 565.55 175.696C565.273 175.931 565.281 176.299 565.281 175.759C565.281 175.51 565.273 175.261 565.281 175.013C565.313 173.907 566.026 173.067 566.026 171.927C566.026 171.09 566.262 170.491 566.565 169.712C566.962 168.69 566.991 167.498 567.238 166.429C567.934 163.411 568.263 160.576 568.263 157.473C568.263 154.318 568.011 151.037 568.366 147.895C568.592 145.895 568.449 144.071 568.449 142.097C568.449 141.547 568.399 140.871 567.89 140.616" stroke="white" stroke-width="3" stroke-linecap="round"/>
<path d="M567.517 141.175C565.1 142.467 562.482 143.787 560.528 145.741C558.418 147.851 556.55 150.259 555.071 152.855C553.728 155.212 553.082 157.948 552.421 160.558C551.986 162.272 551.56 164.031 551.002 165.705C550.469 167.304 549.945 169.212 549.149 170.685C548.568 171.758 548.063 172.88 547.109 173.688C544.647 175.771 541.095 176.738 538.111 177.664C529.2 180.429 519.741 180.977 511.096 184.663C507.248 186.304 503.272 188.273 499.758 190.565C498.886 191.135 498.171 191.884 497.439 192.615" stroke="white" stroke-width="3" stroke-linecap="round"/>
<path d="M492.22 141.734C493.001 143.405 494.093 144.98 494.747 146.704C496.044 150.124 497.291 153.528 498.495 156.976C499.41 159.595 499.985 162.156 500.535 164.866C501.092 167.606 501.888 170.3 501.912 173.108C501.941 176.483 502.72 180.126 501.394 183.338C500.439 185.653 499.257 187.509 497.656 189.488C496.93 190.387 496.285 191.339 495.389 192.056" stroke="white" stroke-width="3" stroke-linecap="round"/>
<path d="M553.501 63.9724C553.588 72.1136 554.837 80.2275 554.837 88.3561" stroke="white" stroke-width="3" stroke-linecap="round"/>
<path d="M553.835 62.6363C553.67 64.2859 552.065 65.7322 551.088 66.9786C549.394 69.1406 547.082 70.5778 545.559 72.9168C542.883 77.0256 540.14 79.8927 540.14 85.0901C540.14 89.2909 545.246 92.9929 548.75 94.4428C550.998 95.3728 552.745 98.6653 554.317 100.381C555.278 101.429 556.065 102.846 557.138 103.758C558.18 104.644 557.7 100.661 557.695 100.604C557.198 95.3377 555.711 90.1507 554.503 85.0159" stroke="white" stroke-width="3" stroke-linecap="round"/>
<path d="M572.206 30.2359C586.559 29.6501 600.903 25.7228 614.961 23.1472C616.074 22.9432 616.462 22.7311 616.279 23.741C616.064 24.9228 615.69 25.9573 615.648 27.1926C615.351 35.936 615.705 44.7679 617.633 53.3207C618.431 56.8567 619.351 60.4056 620.565 63.8239C620.768 64.3942 620.792 65.0504 621.308 65.3085" stroke="white" stroke-width="3" stroke-linecap="round"/>
<path d="M622.644 66.3105C625.266 57.4526 628.577 49.1837 632.627 40.8876C634.06 37.9529 635.56 33.7796 638.009 31.4421C639.065 30.434 640.458 29.7359 641.405 28.6215C641.797 28.1607 641.643 27.8346 641.683 28.5658C641.718 29.197 642.452 29.8812 642.834 30.3101C645.529 33.3422 649.148 35.5116 652.613 37.5288C660.966 42.3919 669.618 47.0534 678.89 49.9062C679.828 50.1949 678.895 50.6033 678.352 50.9454C676.684 51.9955 674.774 52.5585 673.23 53.8217C667.327 58.651 660.644 63.4484 655.861 69.391C650.615 75.9078 644.73 83.1738 641.906 91.1768C641.221 93.1162 641.28 93.7218 643.242 93.7005C645.824 93.6724 648.357 93.1249 650.943 93.051C653.011 92.9919 655.923 93.5903 657.865 92.7727C659.306 92.1659 659.512 93.3211 659.888 94.4057C660.42 95.9428 660.588 97.5831 661.131 99.1191C661.895 101.281 663.217 103.366 664.323 105.373C669.692 115.117 676.452 123.64 683.436 132.262C690.046 140.42 690.206 150.866 695.201 159.763C698.717 166.026 706.776 170.277 708.34 177.689C709.176 181.651 709.156 185.538 709.156 189.565" stroke="white" stroke-width="3" stroke-linecap="round"/>
<path d="M710.158 190.567C697.766 188.709 684.24 185.997 671.82 189.157C667.308 190.305 662.941 191.603 658.57 193.24C657.405 193.676 656.249 194.275 655.044 194.576" stroke="white" stroke-width="3" stroke-linecap="round"/>
<path d="M640.013 117.75C638.313 137.018 639.597 157.605 646.285 175.87C647.809 180.032 649.459 183.967 651.37 187.895C652.083 189.362 652.911 190.774 653.56 192.256C653.799 192.804 654.593 194.35 655.044 194.576" stroke="white" stroke-width="3" stroke-linecap="round"/>
<path d="M578.887 77.6673C580.367 82.2731 580.76 86.7725 581.726 91.4922C582.379 94.6862 582.895 98.4124 582.895 101.699C582.895 102.908 583.287 104.952 582.821 106.059C582.438 106.968 581.893 108.409 581.893 109.4" stroke="white" stroke-width="3" stroke-linecap="round"/>
<path d="M625.65 102.719C627.94 105.714 630.387 108.458 633.036 111.107C634.41 112.481 637.449 114.292 638.343 116.08" stroke="white" stroke-width="3" stroke-linecap="round"/>
<path d="M625.984 102.051C621.316 107.886 622.035 117.782 622.978 124.616C623.264 126.691 624.128 128.732 624.908 130.666C625.612 132.413 625.828 134.284 627.06 135.788C630.721 140.252 634.891 144.54 639.067 148.518C645.065 154.23 651.587 159.743 658.533 164.254C659.741 165.039 661.142 165.962 662.504 166.481C662.551 166.499 663.318 166.852 663.191 166.852C659.016 166.852 654.839 166.806 650.665 166.852C636.271 167.011 622.666 172.37 609.561 177.819C604.482 179.931 599.201 181.901 594.994 185.557C592.96 187.325 591.062 189.286 588.907 190.902" stroke="white" stroke-width="3" stroke-linecap="round"/>
<path d="M584.231 164.848C584.578 168.14 586.561 171.223 586.959 174.609C587.653 180.512 587.905 186.308 587.905 192.238" stroke="white" stroke-width="3" stroke-linecap="round"/>
<path d="M117.842 49.2217C112.727 63.1825 110.955 73.7495 112.714 88.4299C115.337 110.318 120.521 131.293 127.457 152.103" stroke="white" stroke-width="3" stroke-linecap="round"/>
<path d="M126.899 151.458C119.783 153.056 112.258 154.091 105.34 156.467C97.4181 159.188 89.8204 163.795 82.2583 167.37" stroke="white" stroke-width="3" stroke-linecap="round"/>
<path d="M82.2583 166.486C80.6589 159.988 80.9692 152.626 78.3541 146.4C77.2376 143.742 74.7539 137.465 71.6507 136.431" stroke="white" stroke-width="3" stroke-linecap="round"/>
<path d="M70.5943 135.122C72.3824 134.279 74.0984 133.752 75.9688 133.168" stroke="white" stroke-width="3" stroke-linecap="round"/>
<path d="M77.4346 131.702C77.6038 115.852 77.7733 98.5391 71.0829 83.8202" stroke="white" stroke-width="3" stroke-linecap="round"/>
<path d="M70.1057 83.3316C64.9127 83.3316 59.7291 83.0342 54.7966 84.9602C53.6357 85.4135 53.2119 86.0263 52.0279 86.2631" stroke="white" stroke-width="3" stroke-linecap="round"/>
<path d="M53.0051 85.2859C50.7068 95.4846 50.2459 103.878 51.5936 114.303C52.327 119.975 52.9983 125.691 54.4709 131.213" stroke="white" stroke-width="3" stroke-linecap="round"/>
<path d="M55.4481 131.702C57.456 132.125 59.3812 132.985 61.3111 133.656" stroke="white" stroke-width="3" stroke-linecap="round"/>
<path d="M61.7997 133.656C62.0878 148.352 67.7911 160.848 75.9688 172.743" stroke="white" stroke-width="3" stroke-linecap="round"/>
<path d="M75.9688 172.743C67.2669 173.534 61.6339 176.292 54.4437 181.266C47.4864 186.08 40.6623 191.063 33.9502 196.196" stroke="white" stroke-width="3" stroke-linecap="round"/>
<path d="M23.2012 63.788C16.8578 77.2933 13.918 92.4519 13.918 107.272C13.918 120.698 13.6789 134.139 14.298 147.554C14.5592 153.212 16.3998 158.472 17.7182 163.949C18.9001 168.858 20.0238 173.741 21.2468 178.633C22.9162 185.311 25.3124 195.297 31.9958 198.638" stroke="white" stroke-width="3" stroke-linecap="round"/>
<path d="M1.7033 61.8337C8.48554 61.4288 16.0248 60.6884 22.224 63.788" stroke="white" stroke-width="3" stroke-linecap="round"/>
<path d="M7.07778 33.4955C7.07778 43.5648 7.9169 52.269 2.19189 60.8565" stroke="white" stroke-width="3" stroke-linecap="round"/>
<path d="M6.58919 32.0298C14.8568 31.7958 22.6069 29.0837 30.72 27.6867C46.3284 24.9992 61.3021 20.7623 76.5659 16.5035C89.0459 13.0214 101.656 9.80017 114.079 6.13456C115.607 5.68365 116.865 4.66879 118.476 4.66879" stroke="white" stroke-width="3" stroke-linecap="round"/>
<path d="M117.316 4.6388C120.815 4.6388 123.848 3.34994 127.001 1.94873" stroke="white" stroke-width="3" stroke-linecap="round"/>
<path d="M128.615 1.94873C127.498 6.60234 126.949 10.7704 127.001 15.5187C127.089 23.6009 130.446 30.9384 133.457 38.2647" stroke="white" stroke-width="3" stroke-linecap="round"/>
<path d="M132.381 39.0717C127.828 39.4953 123.143 39.3708 118.632 40.1179C115.186 40.6886 111.945 41.8619 108.708 43.1069" stroke="white" stroke-width="3" stroke-linecap="round"/>
<path d="M121.89 42.0308C120.144 44.2391 118.929 46.1763 117.855 48.756" stroke="white" stroke-width="3" stroke-linecap="round"/>
<path d="M28.0692 56.126C26.9144 57.6016 25.9008 59.094 24.9328 60.6949C24.3576 61.6462 23.6991 62.6421 23.4786 63.7445" stroke="white" stroke-width="3" stroke-linecap="round"/>
<path d="M32.5427 198.641L34.8391 195.55" stroke="white" stroke-width="3" stroke-linecap="round"/>
<defs>
<filter id="filter0_d_2_85" x="233.368" y="12.8145" width="85.744" height="37.5479" filterUnits="userSpaceOnUse" color-interpolation-filters="sRGB">
<feFlood flood-opacity="0" result="BackgroundImageFix"/>
<feColorMatrix in="SourceAlpha" type="matrix" values="0 0 0 0 0 0 0 0 0 0 0 0 0 0 0 0 0 0 127 0" result="hardAlpha"/>
<feOffset dy="4"/>
<feGaussianBlur stdDeviation="2"/>
<feComposite in2="hardAlpha" operator="out"/>
<feColorMatrix type="matrix" values="0 0 0 0 0 0 0 0 0 0 0 0 0 0 0 0 0 0 0.25 0"/>
<feBlend mode="normal" in2="BackgroundImageFix" result="effect1_dropShadow_2_85"/>
<feBlend mode="normal" in="SourceGraphic" in2="effect1_dropShadow_2_85" result="shape"/>
</filter>
</defs>
</svg>
