<?xml version="1.0" standalone="no"?>
<!DOCTYPE svg PUBLIC "-//W3C//DTD SVG 20010904//EN"
 "http://www.w3.org/TR/2001/REC-SVG-20010904/DTD/svg10.dtd">
<svg version="1.0" xmlns="http://www.w3.org/2000/svg"
 width="1014.000000pt" height="670.000000pt" viewBox="0 0 1014.000000 670.000000"
 preserveAspectRatio="xMidYMid meet">

<g transform="translate(0.000000,670.000000) scale(0.100000,-0.100000)"
fill="#000000" stroke="none">
<path d="M1399 5288 c-26 -28 -49 -79 -49 -111 0 -36 94 -117 136 -117 12 0
27 -6 33 -14 7 -8 32 -24 57 -35 24 -12 44 -25 44 -30 0 -4 14 -22 31 -40 42
-45 37 -73 -16 -83 -62 -11 -142 -9 -170 4 -14 6 -35 26 -46 45 -21 34 -39 36
-39 5 1 -25 30 -57 70 -77 62 -32 270 -7 270 33 0 30 -33 87 -74 126 -53 50
-126 96 -153 96 -11 0 -41 19 -67 41 -53 47 -55 65 -13 121 20 27 26 29 62 23
22 -3 44 -10 50 -16 5 -5 18 -9 30 -9 11 0 29 -7 39 -15 22 -17 66 -20 66 -6
0 20 -159 81 -210 81 -17 0 -38 -9 -51 -22z"/>
<path d="M1947 4879 c-10 -11 -30 -22 -47 -25 -31 -7 -68 -40 -57 -51 4 -3 17
-2 30 4 38 19 88 36 90 32 49 -73 92 -156 98 -193 6 -31 29 -32 29 -1 0 30
-42 126 -71 163 -10 14 -19 29 -19 33 0 5 30 9 66 9 48 0 65 3 62 13 -3 7 -30
13 -73 15 -38 2 -74 7 -80 12 -7 6 -17 2 -28 -11z"/>
<path d="M2625 4859 c-10 -28 2 -66 34 -112 24 -36 30 -51 22 -61 -13 -15 -4
-26 21 -26 12 0 24 -13 34 -35 9 -23 21 -35 34 -35 25 0 26 26 3 53 -18 20
-17 20 45 14 46 -4 72 -12 96 -31 39 -29 86 -44 86 -27 0 7 -22 26 -50 43 -55
34 -60 43 -29 53 17 6 20 14 17 48 -3 41 -3 41 -68 65 -36 13 -81 30 -100 39
-51 22 -138 29 -145 12z m90 -28 c197 -62 235 -93 151 -125 -25 -9 -64 -16
-86 -14 -36 3 -46 9 -71 43 -34 47 -54 105 -36 105 7 0 26 -4 42 -9z"/>
<path d="M2244 4835 c-4 -9 3 -50 15 -92 21 -72 21 -76 4 -89 -17 -13 -17 -14
3 -20 17 -4 26 -22 40 -77 11 -39 25 -73 33 -75 14 -5 14 12 -5 118 -5 33 -4
36 28 47 18 7 50 15 71 19 46 8 74 -13 83 -63 6 -31 27 -53 39 -41 3 3 -2 27
-10 53 -14 49 -74 116 -120 136 -11 5 -27 13 -35 18 -57 32 -83 42 -100 36
-15 -5 -20 -2 -20 14 0 26 -18 37 -26 16z m147 -101 c8 -6 23 -14 34 -19 l20
-7 -20 -8 c-38 -14 -92 -30 -103 -30 -8 0 -12 18 -12 49 l0 49 34 -12 c18 -6
40 -16 47 -22z"/>
<path d="M3157 4773 c-4 -3 -7 -13 -7 -20 0 -17 60 -173 73 -190 6 -8 33 -13
68 -13 36 0 59 -4 59 -11 0 -6 -29 -41 -65 -78 -36 -37 -65 -73 -65 -79 0 -25
22 -21 48 10 15 18 44 50 66 71 44 43 57 101 36 159 -7 18 -15 59 -19 91 -3
32 -10 59 -16 60 -17 4 -17 -92 -1 -141 9 -25 16 -46 16 -47 0 -1 -24 -3 -52
-4 l-53 -2 -19 48 c-10 26 -26 69 -36 96 -19 53 -24 60 -33 50z"/>
<path d="M3139 4141 c-22 -17 -24 -28 -27 -110 -4 -85 -3 -91 22 -115 18 -19
36 -26 65 -26 42 0 91 17 91 32 0 4 9 8 19 8 11 0 23 5 26 10 3 6 30 10 58 10
58 -1 90 -20 107 -65 13 -34 13 -285 0 -285 -9 0 -47 24 -108 70 -19 14 -45
44 -59 68 -23 39 -41 51 -55 36 -8 -7 60 -107 80 -118 9 -6 28 -20 42 -33 14
-13 30 -23 37 -23 6 0 13 -5 15 -11 2 -5 22 -13 46 -16 l42 -6 0 152 c0 167
-8 202 -55 239 -37 29 -145 30 -190 1 -68 -43 -112 -50 -140 -22 -22 22 -18
169 5 183 8 5 46 10 83 10 50 0 68 3 65 13 -3 8 -30 13 -75 15 -57 2 -74 -1
-94 -17z"/>
<path d="M2146 4142 c-7 -12 12 -69 34 -102 29 -42 132 -252 144 -295 10 -33
16 -40 36 -40 39 0 60 53 60 149 l0 78 55 -56 c30 -30 55 -62 55 -70 0 -19 57
-66 80 -66 32 0 42 37 44 164 2 165 -17 169 -26 7 -4 -69 -11 -128 -16 -133
-10 -10 -52 24 -52 41 0 7 -19 33 -43 59 -24 26 -54 62 -66 80 -14 19 -30 32
-40 30 -13 -3 -17 -22 -21 -115 -3 -72 -10 -117 -18 -125 -10 -10 -14 -8 -19
12 -9 32 -179 370 -195 386 -3 3 -9 1 -12 -4z"/>
<path d="M2837 4123 c-4 -3 -7 -33 -7 -65 0 -32 -5 -66 -11 -76 -14 -24 1
-224 19 -230 8 -2 12 10 12 45 0 48 0 48 35 50 20 1 51 11 70 23 19 12 38 19
42 17 9 -6 38 -61 47 -89 9 -28 26 -21 26 10 0 27 -45 105 -96 164 -13 16 -24
34 -24 40 0 12 -56 87 -79 106 -17 14 -25 15 -34 5z m88 -132 c4 -14 17 -33
29 -42 19 -16 19 -19 6 -33 -8 -8 -36 -24 -62 -35 l-48 -20 0 33 c0 18 3 67 6
108 l7 76 27 -32 c15 -17 31 -42 35 -55z"/>
<path d="M4227 3383 c-4 -3 -7 -32 -7 -63 0 -47 4 -60 25 -80 14 -13 25 -33
25 -44 0 -31 59 -82 110 -97 25 -7 49 -16 54 -21 6 -4 34 -8 63 -8 44 0 53 3
53 18 0 21 -23 54 -76 111 -49 51 -71 39 -27 -16 68 -86 66 -83 48 -83 -36 0
-148 44 -171 67 -31 31 -31 47 1 39 18 -5 25 -2 25 8 0 17 -38 42 -58 37 -26
-5 -42 21 -42 67 l0 45 45 -6 c46 -7 55 -1 33 21 -13 13 -90 17 -101 5z"/>
<path d="M3886 3362 c-9 -15 90 -89 167 -125 48 -23 49 -49 1 -72 -46 -21 -39
-41 13 -37 33 2 46 -2 71 -27 18 -16 32 -34 32 -40 0 -6 6 -11 13 -11 8 0 23
-20 35 -44 22 -43 38 -56 68 -56 12 0 14 13 12 60 -4 71 -21 84 -28 20 -5 -38
-7 -41 -13 -22 -5 12 -37 53 -72 90 -50 52 -65 74 -65 98 0 36 -13 49 -95 94
-33 19 -73 44 -88 57 -30 25 -43 28 -51 15z"/>
<path d="M3366 3313 c-11 -12 -6 -35 17 -72 26 -42 57 -135 57 -171 0 -19 -11
-32 -47 -55 -35 -22 -48 -26 -51 -16 -20 61 -172 312 -183 305 -14 -9 -4 -33
58 -136 58 -95 123 -236 123 -266 1 -22 37 -69 46 -59 4 4 2 24 -4 46 -18 60
-15 75 20 90 58 26 71 47 66 107 -3 30 -4 54 -2 54 1 0 26 -37 55 -82 47 -74
109 -148 124 -148 15 0 1 38 -24 65 -16 16 -74 98 -129 181 -101 152 -114 169
-126 157z"/>
<path d="M3680 3298 c-14 -6 -54 -14 -90 -17 -49 -5 -65 -10 -65 -21 0 -12 12
-14 64 -12 35 2 78 10 97 18 18 8 45 14 60 14 36 0 26 24 -12 27 -16 1 -40 -3
-54 -9z"/>
<path d="M3895 3229 c-4 -5 15 -34 42 -63 26 -29 70 -82 96 -119 27 -37 52
-67 58 -67 16 0 10 26 -13 58 -13 17 -38 53 -57 79 -64 90 -113 134 -126 112z"/>
<path d="M3585 3159 c-4 -6 2 -21 14 -33 12 -12 21 -28 21 -35 0 -7 17 -32 37
-57 28 -33 44 -44 65 -44 15 0 28 4 28 9 0 5 10 13 22 17 12 3 26 11 32 16 6
5 20 15 30 22 12 8 17 19 13 30 -6 15 -10 14 -40 -8 -19 -14 -39 -26 -44 -26
-6 0 -16 -7 -23 -15 -24 -29 -41 -15 -92 82 -20 37 -53 59 -63 42z"/>
<path d="M3675 3161 c-16 -3 -30 -11 -30 -16 0 -13 56 -18 74 -6 13 8 7 32 -7
30 -4 -1 -20 -4 -37 -8z"/>
<path d="M3745 2719 c-117 -39 -185 -71 -227 -107 -18 -17 -45 -32 -58 -34
-35 -4 -31 -22 5 -26 22 -2 41 6 70 30 63 53 83 63 210 102 105 34 128 37 200
34 61 -3 93 -10 135 -31 61 -29 98 -37 101 -22 2 10 -1 12 -86 52 -52 24 -74
28 -160 30 -87 1 -112 -2 -190 -28z"/>
</g>
</svg>
